<svg width="74" height="74" viewBox="0 0 74 74" fill="none" xmlns="http://www.w3.org/2000/svg">
<rect width="74" height="74" rx="37" fill="#FEF1F1"/>
<rect x="13" y="13" width="48" height="48" rx="24" fill="#FDE7E7"/>
<path d="M46 30.9766C42.67 30.6466 39.32 30.4766 35.98 30.4766C34 30.4766 32.02 30.5766 30.04 30.7766L28 30.9766" stroke="#E90303" stroke-width="1.5" stroke-linecap="round" stroke-linejoin="round"/>
<path d="M33.5 29.97L33.72 28.66C33.88 27.71 34 27 35.69 27H38.31C40 27 40.13 27.75 40.28 28.67L40.5 29.97" stroke="#E90303" stroke-width="1.5" stroke-linecap="round" stroke-linejoin="round"/>
<path d="M43.8504 34.1406L43.2004 44.2106C43.0904 45.7806 43.0004 47.0006 40.2104 47.0006H33.7904C31.0004 47.0006 30.9104 45.7806 30.8004 44.2106L30.1504 34.1406" stroke="#E90303" stroke-width="1.5" stroke-linecap="round" stroke-linejoin="round"/>
<path d="M35.3301 41.5H38.6601" stroke="#E90303" stroke-width="1.5" stroke-linecap="round" stroke-linejoin="round"/>
<path d="M34.5 37.5H39.5" stroke="#E90303" stroke-width="1.5" stroke-linecap="round" stroke-linejoin="round"/>
</svg>
