<svg xmlns="http://www.w3.org/2000/svg" width="171" height="54" viewBox="0 0 171 54" fill="none">
  <path d="M8.05273 21.1729H12.8863C14.9116 21.1729 16.5531 21.9231 16.5531 24.1658C16.5531 25.7297 15.6117 26.8848 14.073 27.1429V27.1746C15.7936 27.3691 16.2129 28.4607 16.3276 29.6634C16.4423 30.8662 16.2446 32.1681 16.7153 32.7874H15.9202C15.4812 31.9895 15.7422 30.6558 15.6117 29.5325C15.4653 28.4091 14.9155 27.5001 12.8863 27.5001H8.76472V32.7913H8.05273V21.1729ZM12.8824 26.8848C14.5674 26.8848 15.8332 26.087 15.8332 24.2174C15.8332 22.4589 14.4369 21.7921 12.8824 21.7921H8.76472V26.8848H12.8824Z" fill="white"/>
  <path d="M18.9815 27.0635V32.7913H18.2695V21.1729H18.9815V26.4442H26.3783V21.1729H27.0903V32.7913H26.3783V27.0635H18.9815Z" fill="white"/>
  <path d="M36.9983 32.1721V32.7913H29.1348V21.1729H36.9192V21.7921H29.8468V26.4482H36.4959V27.0674H29.8468V32.1761H36.9983V32.1721Z" fill="white"/>
  <path d="M38.2168 21.1729H39.2373L43.7624 31.9975H43.794L48.2717 21.1729H49.2922V32.7913H48.5802V22.0501H48.5485L44.1382 32.7913H43.4262L38.9604 22.0501H38.9288V32.7913H38.2168V21.1729Z" fill="white"/>
  <path d="M55.5501 21.1729L60.1226 32.7913H59.3592L57.8997 29.0641H52.354L50.8786 32.7913H50.1152L54.7709 21.1729H55.5501ZM57.6742 28.4488L55.1941 21.8754H55.1624L52.5835 28.4488H57.6742Z" fill="white"/>
  <path d="M97.3133 9.83606L71.4088 9.82812C68.9326 9.82812 66.9707 11.8009 66.9707 14.2858V40.2299C66.9707 42.7148 68.9801 44.7312 71.4562 44.7312H97.3054C99.7815 44.7312 101.747 42.7108 101.747 40.2259L101.743 14.3294C101.747 11.8406 99.7894 9.83606 97.3133 9.83606Z" fill="url(#paint0_linear_4496_7462)"/>
  <path d="M97.3093 9.80054H71.4562C68.98 9.80054 66.9746 11.7694 66.9746 14.2542V40.1984C66.9746 42.6832 68.984 44.6957 71.4601 44.6957H97.3133C99.7894 44.6957 101.799 42.6792 101.799 40.1984V14.2542C101.795 11.7694 99.7854 9.80054 97.3093 9.80054ZM92.1592 31.0131C89.3508 36.2131 88.0257 37.9199 84.2562 41.0161C80.4866 37.9239 78.6038 36.2528 75.9615 30.9655C73.339 25.7139 73.5209 18.1562 73.5209 18.1562C73.5209 18.1562 76.9306 19.6169 83.6312 20.0416L83.6589 16.6438H81.2777L81.2935 15.2823H83.3701L83.386 13.2103L84.8614 13.2222L84.8732 15.6396L86.9578 15.6475L86.9499 16.6518L84.8455 16.6438L84.8693 20.5339C91.5066 20.0496 94.6393 18.7317 94.6393 18.7317C94.6393 18.7317 94.5167 26.6547 92.1592 31.0131Z" fill="#D4A69A"/>
  <path d="M97.3601 9.87183H71.507C69.0309 9.87183 67.0215 11.8883 67.0215 14.3731V40.3173C67.0215 42.8021 69.023 44.7511 71.4991 44.7511L97.3087 44.7432C99.7848 44.7432 101.794 42.429 101.794 40.2458L101.802 14.4049C101.798 11.92 99.8363 9.87183 97.3601 9.87183ZM92.7164 31.4218C90.0741 36.7091 88.0212 38.5946 84.2516 41.6867C84.2516 41.6867 84.2595 41.2858 84.2595 41.0159C81.0318 38.1381 78.9433 36.0819 76.578 31.4218C73.9199 26.1901 73.999 18.807 73.999 18.807C73.999 18.807 77.0328 20.1129 83.6622 20.5258V16.6159L83.4763 16.8382H81.3918L81.6054 16.6318V15.6156H83.6504L83.6543 13.5356L84.8608 13.5237L85.1416 13.2736V15.3576L84.8766 15.6116L86.9453 15.6156L87.1866 15.3576L87.1826 16.8421H85.1574L85.1535 20.1764L84.8726 20.5258C90.3985 20.1804 93.6341 19.0928 94.6427 18.7236C94.7574 18.5013 95.0027 18.0091 95.0027 18.0091C95.0027 18.0091 95.3389 26.1703 92.7164 31.4218Z" fill="url(#paint1_linear_4496_7462)"/>
  <path d="M97.3367 9.77661H71.4836C69.0074 9.77661 66.998 11.7931 66.998 14.2779V40.2221C66.998 42.7069 69.0074 44.7194 71.4836 44.7194H97.3367C99.8128 44.7194 101.822 42.7069 101.822 40.2221V14.2779C101.822 11.7931 99.8128 9.77661 97.3367 9.77661ZM92.4675 31.1003C89.8252 36.3876 88.0571 38.3723 84.2836 41.4645C80.514 38.3723 78.7419 36.3876 76.0996 31.1003C73.4771 25.8488 73.6591 18.291 73.6591 18.291C73.6591 18.291 76.7563 19.7478 83.4489 20.1646C83.3975 20.1646 83.4489 16.8263 83.4489 16.8263L81.3723 16.8501V15.3616H83.4489V13.2895H85.1103L85.1221 15.3497H87.175V16.8382H85.1103C85.1103 16.8382 85.1617 20.1686 85.1103 20.1686C91.7357 19.7557 94.912 18.291 94.9001 18.295C94.908 18.2871 95.0939 25.8488 92.4675 31.1003Z" fill="url(#paint2_linear_4496_7462)"/>
  <path d="M92.4402 31.1242C89.7979 36.4115 88.0298 38.3962 84.2563 41.4883C80.4867 38.3962 78.7146 36.4115 76.0723 31.1242C75.3683 29.719 74.8699 28.1471 74.5139 26.5991C71.8321 26.2378 69.3045 25.7258 66.9668 25.0946V40.2459C66.9668 42.7308 68.9762 44.7433 71.4523 44.7433H97.3054C99.7816 44.7433 101.791 42.7268 101.791 40.2459V25.0232C99.39 25.6861 96.7754 26.222 93.9986 26.5991C93.6427 28.1432 93.1443 29.719 92.4402 31.1242Z" fill="url(#paint3_linear_4496_7462)"/>
  <path d="M117.542 24.6381C117.233 22.6852 115.532 21.5142 113.602 21.5142C110.568 21.5142 108.8 24.003 108.8 26.984C108.8 29.9651 110.568 32.4539 113.602 32.4539C115.856 32.4539 117.609 30.4374 117.739 28.2701H118.451C118.19 31.0368 116.149 33.0692 113.602 33.0692C110.133 33.0692 108.088 30.3858 108.088 26.984C108.088 23.5823 110.133 20.8989 113.602 20.8989C117.704 20.8989 118.242 24.4793 118.257 24.6421H117.542V24.6381Z" fill="white"/>
  <path d="M123.264 24.2332C125.713 24.2332 127.093 26.2337 127.093 28.6114C127.093 30.9891 125.717 32.9897 123.264 32.9897C120.816 32.9897 119.436 30.9891 119.436 28.6114C119.436 26.2337 120.816 24.2332 123.264 24.2332ZM123.264 32.4499C125.357 32.4499 126.476 30.612 126.476 28.6075C126.476 26.6029 125.357 24.7651 123.264 24.7651C121.172 24.7651 120.053 26.6029 120.053 28.6075C120.053 30.612 121.172 32.4499 123.264 32.4499Z" fill="white"/>
  <path d="M128.533 24.4277H129.15V26.2179H129.182C129.605 24.9635 130.867 24.2332 132.164 24.2332C135.099 24.2332 135.131 26.595 135.131 27.6191V32.7952H134.514V27.504C134.514 26.6426 134.415 24.769 132.145 24.769C130.282 24.769 129.146 26.2179 129.146 28.2701V32.7952H128.529V24.4277H128.533Z" fill="white"/>
  <path d="M136.951 24.4277H137.568V26.2179H137.6C138.023 24.9635 139.285 24.2332 140.582 24.2332C143.517 24.2332 143.549 26.595 143.549 27.6191V32.7952H142.932V27.504C142.932 26.6426 142.833 24.769 140.563 24.769C138.7 24.769 137.564 26.2179 137.564 28.2701V32.7952H136.947V24.4277H136.951Z" fill="white"/>
  <path d="M145.614 28.6908C145.582 30.6596 146.618 32.4499 148.679 32.4499C150.254 32.4499 151.373 31.5051 151.662 29.961H152.279C151.954 31.914 150.657 32.9897 148.679 32.9897C146.247 32.9897 144.965 31.0685 144.997 28.7583C144.965 26.464 146.164 24.2332 148.679 24.2332C151.29 24.2332 152.457 26.3012 152.346 28.6908H145.614ZM151.725 28.1549C151.693 26.3965 150.59 24.769 148.675 24.769C146.828 24.769 145.74 26.4957 145.61 28.1549H151.725Z" fill="white"/>
  <path d="M160.063 27.0157C159.949 25.5351 158.75 24.769 157.243 24.769C155.151 24.769 154.031 26.6227 154.031 28.5281C154.031 30.7906 155.087 32.4499 157.243 32.4499C158.801 32.4499 159.937 31.3741 160.146 29.8459H160.763C160.486 31.8465 159.043 32.9857 157.243 32.9857C154.533 32.9857 153.414 30.8542 153.414 28.5281C153.414 26.202 154.775 24.2332 157.243 24.2332C159.043 24.2332 160.502 25.1104 160.68 27.0157H160.063Z" fill="white"/>
  <path d="M165.268 24.9635H163.453V30.8065C163.453 32.1561 164.086 32.2871 165.252 32.2554V32.7912C163.987 32.8746 162.772 32.692 162.836 30.8065V24.9635H161.293V24.4277H162.836V21.8237H163.453V24.4277H165.268V24.9635Z" fill="white"/>
  <defs>
    <linearGradient id="paint0_linear_4496_7462" x1="84.4115" y1="22.7872" x2="84.1438" y2="45.1019" gradientUnits="userSpaceOnUse">
      <stop stop-color="white"/>
      <stop offset="1" stop-color="#959598"/>
    </linearGradient>
    <linearGradient id="paint1_linear_4496_7462" x1="84.41" y1="44.5266" x2="84.41" y2="10.1662" gradientUnits="userSpaceOnUse">
      <stop stop-color="#DCAFAF"/>
      <stop offset="0.2079" stop-color="#A53E33"/>
      <stop offset="0.6966" stop-color="#812F24"/>
      <stop offset="1" stop-color="#812D24"/>
    </linearGradient>
    <linearGradient id="paint2_linear_4496_7462" x1="84.4103" y1="9.54265" x2="84.4103" y2="45.075" gradientUnits="userSpaceOnUse">
      <stop stop-color="#DCAFAF"/>
      <stop offset="0.382" stop-color="#B8443B"/>
      <stop offset="0.7584" stop-color="#B8443B"/>
      <stop offset="1" stop-color="#812D24"/>
    </linearGradient>
    <linearGradient id="paint3_linear_4496_7462" x1="84.5583" y1="9.65149" x2="84.2855" y2="44.8256" gradientUnits="userSpaceOnUse">
      <stop stop-color="#DCAFAF"/>
      <stop offset="0.382" stop-color="#98372D"/>
      <stop offset="0.7584" stop-color="#B6443B"/>
      <stop offset="1" stop-color="#812D24"/>
    </linearGradient>
  </defs>
</svg>